<svg width="48" height="48" viewBox="0 0 48 48" fill="none" xmlns="http://www.w3.org/2000/svg">
<circle cx="24" cy="24" r="23.5" stroke="#E5E5E5"/>
<path d="M28 34.0268V30.1568C28.0375 29.68 27.9731 29.2006 27.811 28.7506C27.6489 28.3006 27.3929 27.8902 27.06 27.5468C30.2 27.1968 33.5 26.0068 33.5 20.5468C33.4997 19.1506 32.9627 17.808 32 16.7968C32.4559 15.5753 32.4236 14.2251 31.91 13.0268C31.91 13.0268 30.73 12.6768 28 14.5068C25.708 13.8856 23.292 13.8856 21 14.5068C18.27 12.6768 17.09 13.0268 17.09 13.0268C16.5764 14.2251 16.5441 15.5753 17 16.7968C16.0301 17.8155 15.4925 19.1703 15.5 20.5768C15.5 25.9968 18.8 27.1868 21.94 27.5768C21.611 27.9168 21.3573 28.3222 21.1953 28.7667C21.0334 29.2112 20.9668 29.6849 21 30.1568V34.0268M21 31.0268C16 32.5268 16 28.5268 14 28.0268L21 31.0268Z" stroke="#E5E5E5" stroke-width="2" stroke-linecap="round" stroke-linejoin="round"/>
</svg>
